<svg xmlns="http://www.w3.org/2000/svg" xmlns:xlink="http://www.w3.org/1999/xlink" width="1600" height="984" viewBox="0 0 1600 984"><rect width="1600" height="984" fill="#f7f7f4"/><text x="60" y="78" font-family="system-ui,-apple-system,'Segoe UI',Helvetica,Arial,sans-serif" font-size="40" font-weight="700" fill="#161616">Retlex AI / Three logo directions</text><text x="60" y="116" font-family="system-ui,-apple-system,'Segoe UI',Helvetica,Arial,sans-serif" font-size="20" fill="#6b6b6b">Voice-led billing for everyday Indian shops. Shape study / 02</text><rect x="60" y="150" width="474.667" height="774" rx="18" fill="#fff" stroke="#161616" stroke-width="2"/><g><svg xmlns="http://www.w3.org/2000/svg" fill="#151B24" viewBox="0 0 256 256" x="90" y="190" width="414.667" height="300" preserveAspectRatio="xMidYMid meet"><title>Retlex AI concept A</title><g transform="translate(-8 0)"><path fill-rule="evenodd" d="M48 224V40Q48 24 64 24H136C184 24 216 52 216 96C216 126 201 148 177 159L224 224H171L127 164H92V224ZM92 64V132L116 112H136C159 112 172 107 172 88C172 72 159 64 136 64Z"/></g></svg></g><g><svg xmlns="http://www.w3.org/2000/svg" viewBox="0 0 900 256" x="90" y="514" width="414.667" height="120" preserveAspectRatio="xMidYMid meet"><g transform="translate(0 24) scale(.8)" fill="#151B24"><path fill-rule="evenodd" d="M48 224V40Q48 24 64 24H136C184 24 216 52 216 96C216 126 201 148 177 159L224 224H171L127 164H92V224ZM92 64V132L116 112H136C159 112 172 107 172 88C172 72 159 64 136 64Z"/></g><text x="235" y="158" font-family="Segoe UI,Arial,sans-serif" font-size="112" font-weight="600" letter-spacing="-4" fill="#151B24">Retlex <tspan font-size="64" letter-spacing="0">AI</tspan></text></svg></g><g><svg xmlns="http://www.w3.org/2000/svg" fill="#151B24" viewBox="0 0 256 256" x="90" y="660" width="64" height="64" preserveAspectRatio="xMidYMid meet"><title>Retlex AI concept A</title><g transform="translate(-8 0)"><path fill-rule="evenodd" d="M48 224V40Q48 24 64 24H136C184 24 216 52 216 96C216 126 201 148 177 159L224 224H171L127 164H92V224ZM92 64V132L116 112H136C159 112 172 107 172 88C172 72 159 64 136 64Z"/></g></svg></g><text x="122" y="744" font-family="system-ui,-apple-system,'Segoe UI',Helvetica,Arial,sans-serif" font-size="12" fill="#8a8a8a" text-anchor="middle">64px</text><g><svg xmlns="http://www.w3.org/2000/svg" fill="#151B24" viewBox="0 0 256 256" x="180" y="692" width="32" height="32" preserveAspectRatio="xMidYMid meet"><title>Retlex AI concept A</title><g transform="translate(-8 0)"><path fill-rule="evenodd" d="M48 224V40Q48 24 64 24H136C184 24 216 52 216 96C216 126 201 148 177 159L224 224H171L127 164H92V224ZM92 64V132L116 112H136C159 112 172 107 172 88C172 72 159 64 136 64Z"/></g></svg></g><text x="196" y="744" font-family="system-ui,-apple-system,'Segoe UI',Helvetica,Arial,sans-serif" font-size="12" fill="#8a8a8a" text-anchor="middle">32px</text><g><svg xmlns="http://www.w3.org/2000/svg" fill="#151B24" viewBox="0 0 256 256" x="238" y="708" width="16" height="16" preserveAspectRatio="xMidYMid meet"><title>Retlex AI concept A</title><g transform="translate(-8 0)"><path fill-rule="evenodd" d="M48 224V40Q48 24 64 24H136C184 24 216 52 216 96C216 126 201 148 177 159L224 224H171L127 164H92V224ZM92 64V132L116 112H136C159 112 172 107 172 88C172 72 159 64 136 64Z"/></g></svg></g><text x="246" y="744" font-family="system-ui,-apple-system,'Segoe UI',Helvetica,Arial,sans-serif" font-size="12" fill="#8a8a8a" text-anchor="middle">16px</text><text x="90.0" y="780" font-family="system-ui,-apple-system,'Segoe UI',Helvetica,Arial,sans-serif" font-size="26" font-weight="700" fill="#161616">A · Speaking R</text><text x="90.0" y="808" font-family="system-ui,-apple-system,'Segoe UI',Helvetica,Arial,sans-serif" font-size="15" font-weight="700" fill="#161616" letter-spacing="1.5">RECOMMENDED</text><text x="90.0" y="842" font-family="system-ui,-apple-system,'Segoe UI',Helvetica,Arial,sans-serif" font-size="19" fill="#555">A speech-shaped opening makes the R speak.</text><rect x="562.667" y="150" width="474.667" height="774" rx="18" fill="#fff" stroke="#e4e4e0" stroke-width="1"/><g><svg xmlns="http://www.w3.org/2000/svg" fill="#151B24" viewBox="0 0 256 256" x="592.667" y="190" width="414.667" height="300" preserveAspectRatio="xMidYMid meet"><title>Retlex AI concept B</title><path fill-rule="evenodd" d="M64 24H192Q216 24 216 48V176Q216 200 192 200H104L40 232V48Q40 24 64 24ZM80 68V96H176V68ZM80 128V156H144V128Z"/></svg></g><g><svg xmlns="http://www.w3.org/2000/svg" viewBox="0 0 900 256" x="592.667" y="514" width="414.667" height="120" preserveAspectRatio="xMidYMid meet"><g transform="translate(0 24) scale(.8)" fill="#151B24"><path fill-rule="evenodd" d="M64 24H192Q216 24 216 48V176Q216 200 192 200H104L40 232V48Q40 24 64 24ZM80 68V96H176V68ZM80 128V156H144V128Z"/></g><text x="235" y="158" font-family="Segoe UI,Arial,sans-serif" font-size="112" font-weight="600" letter-spacing="-4" fill="#151B24">Retlex <tspan font-size="64" letter-spacing="0">AI</tspan></text></svg></g><g><svg xmlns="http://www.w3.org/2000/svg" fill="#151B24" viewBox="0 0 256 256" x="592.667" y="660" width="64" height="64" preserveAspectRatio="xMidYMid meet"><title>Retlex AI concept B</title><path fill-rule="evenodd" d="M64 24H192Q216 24 216 48V176Q216 200 192 200H104L40 232V48Q40 24 64 24ZM80 68V96H176V68ZM80 128V156H144V128Z"/></svg></g><text x="624.667" y="744" font-family="system-ui,-apple-system,'Segoe UI',Helvetica,Arial,sans-serif" font-size="12" fill="#8a8a8a" text-anchor="middle">64px</text><g><svg xmlns="http://www.w3.org/2000/svg" fill="#151B24" viewBox="0 0 256 256" x="682.667" y="692" width="32" height="32" preserveAspectRatio="xMidYMid meet"><title>Retlex AI concept B</title><path fill-rule="evenodd" d="M64 24H192Q216 24 216 48V176Q216 200 192 200H104L40 232V48Q40 24 64 24ZM80 68V96H176V68ZM80 128V156H144V128Z"/></svg></g><text x="698.667" y="744" font-family="system-ui,-apple-system,'Segoe UI',Helvetica,Arial,sans-serif" font-size="12" fill="#8a8a8a" text-anchor="middle">32px</text><g><svg xmlns="http://www.w3.org/2000/svg" fill="#151B24" viewBox="0 0 256 256" x="740.667" y="708" width="16" height="16" preserveAspectRatio="xMidYMid meet"><title>Retlex AI concept B</title><path fill-rule="evenodd" d="M64 24H192Q216 24 216 48V176Q216 200 192 200H104L40 232V48Q40 24 64 24ZM80 68V96H176V68ZM80 128V156H144V128Z"/></svg></g><text x="748.667" y="744" font-family="system-ui,-apple-system,'Segoe UI',Helvetica,Arial,sans-serif" font-size="12" fill="#8a8a8a" text-anchor="middle">16px</text><text x="592.6666666666667" y="780" font-family="system-ui,-apple-system,'Segoe UI',Helvetica,Arial,sans-serif" font-size="26" font-weight="700" fill="#161616">B · Spoken Slip</text><text x="592.6666666666667" y="814" font-family="system-ui,-apple-system,'Segoe UI',Helvetica,Arial,sans-serif" font-size="19" fill="#555">A spoken request becomes an organised bill.</text><rect x="1065.33" y="150" width="474.667" height="774" rx="18" fill="#fff" stroke="#e4e4e0" stroke-width="1"/><g><svg xmlns="http://www.w3.org/2000/svg" fill="#151B24" viewBox="0 0 256 256" x="1095.33" y="190" width="414.667" height="300" preserveAspectRatio="xMidYMid meet"><title>Retlex AI concept C</title><path d="M32 104V72Q32 32 72 32H152V72H80Q72 72 72 80V104ZM224 152V184Q224 224 184 224H104V184H176Q184 184 184 176V152Z"/><rect x="32" y="128" width="40" height="64" rx="20"/><rect x="108" y="96" width="40" height="64" rx="20"/><rect x="184" y="64" width="40" height="64" rx="20"/></svg></g><g><svg xmlns="http://www.w3.org/2000/svg" viewBox="0 0 900 256" x="1095.33" y="514" width="414.667" height="120" preserveAspectRatio="xMidYMid meet"><g transform="translate(0 24) scale(.8)" fill="#151B24"><path d="M32 104V72Q32 32 72 32H152V72H80Q72 72 72 80V104ZM224 152V184Q224 224 184 224H104V184H176Q184 184 184 176V152Z"/><rect x="32" y="128" width="40" height="64" rx="20"/><rect x="108" y="96" width="40" height="64" rx="20"/><rect x="184" y="64" width="40" height="64" rx="20"/></g><text x="235" y="158" font-family="Segoe UI,Arial,sans-serif" font-size="112" font-weight="600" letter-spacing="-4" fill="#151B24">Retlex <tspan font-size="64" letter-spacing="0">AI</tspan></text></svg></g><g><svg xmlns="http://www.w3.org/2000/svg" fill="#151B24" viewBox="0 0 256 256" x="1095.33" y="660" width="64" height="64" preserveAspectRatio="xMidYMid meet"><title>Retlex AI concept C</title><path d="M32 104V72Q32 32 72 32H152V72H80Q72 72 72 80V104ZM224 152V184Q224 224 184 224H104V184H176Q184 184 184 176V152Z"/><rect x="32" y="128" width="40" height="64" rx="20"/><rect x="108" y="96" width="40" height="64" rx="20"/><rect x="184" y="64" width="40" height="64" rx="20"/></svg></g><text x="1127.33" y="744" font-family="system-ui,-apple-system,'Segoe UI',Helvetica,Arial,sans-serif" font-size="12" fill="#8a8a8a" text-anchor="middle">64px</text><g><svg xmlns="http://www.w3.org/2000/svg" fill="#151B24" viewBox="0 0 256 256" x="1185.33" y="692" width="32" height="32" preserveAspectRatio="xMidYMid meet"><title>Retlex AI concept C</title><path d="M32 104V72Q32 32 72 32H152V72H80Q72 72 72 80V104ZM224 152V184Q224 224 184 224H104V184H176Q184 184 184 176V152Z"/><rect x="32" y="128" width="40" height="64" rx="20"/><rect x="108" y="96" width="40" height="64" rx="20"/><rect x="184" y="64" width="40" height="64" rx="20"/></svg></g><text x="1201.33" y="744" font-family="system-ui,-apple-system,'Segoe UI',Helvetica,Arial,sans-serif" font-size="12" fill="#8a8a8a" text-anchor="middle">32px</text><g><svg xmlns="http://www.w3.org/2000/svg" fill="#151B24" viewBox="0 0 256 256" x="1243.33" y="708" width="16" height="16" preserveAspectRatio="xMidYMid meet"><title>Retlex AI concept C</title><path d="M32 104V72Q32 32 72 32H152V72H80Q72 72 72 80V104ZM224 152V184Q224 224 184 224H104V184H176Q184 184 184 176V152Z"/><rect x="32" y="128" width="40" height="64" rx="20"/><rect x="108" y="96" width="40" height="64" rx="20"/><rect x="184" y="64" width="40" height="64" rx="20"/></svg></g><text x="1251.33" y="744" font-family="system-ui,-apple-system,'Segoe UI',Helvetica,Arial,sans-serif" font-size="12" fill="#8a8a8a" text-anchor="middle">16px</text><text x="1095.3333333333335" y="780" font-family="system-ui,-apple-system,'Segoe UI',Helvetica,Arial,sans-serif" font-size="26" font-weight="700" fill="#161616">C · Counter Rhythm</text><text x="1095.3333333333335" y="814" font-family="system-ui,-apple-system,'Segoe UI',Helvetica,Arial,sans-serif" font-size="19" fill="#555">Three voice beats connect both sides of the</text><text x="1095.3333333333335" y="840" font-family="system-ui,-apple-system,'Segoe UI',Helvetica,Arial,sans-serif" font-size="19" fill="#555">counter.</text></svg>
